<?xml version="1.0" encoding="utf-8"?><svg width="100%" height="100%" version="1.1" viewBox="174.377948760986 149.181098937988 627.009566966735 407.15382637555" style="background-color:#FFFFFF" xmlns:xlink="http://www.w3.org/1999/xlink" xmlns="http://www.w3.org/2000/svg"><defs /><g id="layer1"><g><path d="M468.76132112516 485.080205532071 C478.733434932494 487.458321725797 489.009346081527 489.014202789305 495.775923356529 491.230840172497 C510.957480707712 496.204108959956 570.511158841917 520.326822856654 587.598344740735 524.598619331358 C617.336404912196 532.033134374226 620.391244414976 533.587878778923 655.11138369348 537.852021371793 C716.807447161233 545.429203304592 746.393497961155 531.035722832743 765.098692897119 506.378874962611 C778.214833714271 489.089416612725 784.77290412285 449.442900051782 760.031093035947 423.210618417477 C742.807929564106 404.949914977451 718.755887887973 388.790505424139 695.444052910403 373.339638055289" opacity="1" stroke="#000000" stroke-opacity="1" stroke-width="2" stroke-linecap="round" stroke-linejoin="miter" stroke-dasharray="none" fill-opacity="0" /><path d="M711.681573584522 352.317446510488 C751.996533301319 382.553666298085 762.075273230518 392.632406227285 787.272123053516 422.868626014882 C798.904085895527 436.826981425297 803.240654095998 474.057405597677 795.471437866592 492.745520311655 C787.100785783994 512.880332077908 782.232753088917 523.656025306875 757.035903265919 538.774135200673" opacity="1" stroke="#000000" stroke-opacity="1" stroke-width="2" stroke-linecap="round" stroke-linejoin="miter" stroke-dasharray="none" fill-opacity="0" /><path d="M468.76132112516 485.080205532071 C502.375591458769 502.29770237938 515.822587494108 507.74332420322 539.690601071364 517.467425853047 C575.172964163135 531.923216691228 618.506255981757 551.490441618022 671.366613867726 553.892245094472 C703.512618903017 555.352855459888 731.839053442921 553.892245094472 757.035903265919 538.774135200673" opacity="1" stroke="#000000" stroke-opacity="1" stroke-width="2" stroke-linecap="round" stroke-linejoin="miter" stroke-dasharray="none" fill-opacity="0" /><path d="M206.087979694225 333.908667092305 C221.997174859016 298.125851986451 280.76870886748 235.008455565145 322.276723237066 212.107488748711 C335.325775022279 204.908031788254 347.41414648677 205.142452699566 363.430794160084 202.854360174806" opacity="1" stroke="#000000" stroke-opacity="1" stroke-width="2" stroke-linecap="round" stroke-linejoin="round" stroke-dasharray="none" fill-opacity="0" /><path d="M213.901045712421 346.152483725514 C219.708717665278 372.719493722626 252.812890136415 369.728696943838 276.012091353698 354.999045377306" opacity="1" stroke="#000000" stroke-opacity="1" stroke-width="2" stroke-linecap="round" stroke-linejoin="round" stroke-dasharray="none" fill-opacity="0" /><path d="M276.012091353698 354.999045377306 C346.368505385082 367.792502385745 399.240635779347 337.199336616689 383.699499397219 283.950191353776" opacity="1" stroke="#000000" stroke-opacity="1" stroke-width="2" stroke-linecap="round" stroke-linejoin="round" stroke-dasharray="none" fill-opacity="0" /><path d="M206.087979694225 333.908667092305 C202.852948279125 342.804997476436 202.026270359702 345.470936146368 208.736112439053 352.180766210924 C209.634674872567 353.079280585262 216.339278812259 357.504036293122 218.882081107386 356.954632005633" opacity="1" stroke="#000000" stroke-opacity="1" stroke-width="2" stroke-linecap="round" stroke-linejoin="round" stroke-dasharray="none" fill-opacity="0" /><path d="M300.157305331529 226.859220525676 C310.230630610737 219.272348954626 307.148415185897 217.717724842113 308.104408335993 212.55540027892 C311.640770791268 193.458990155345 312.266044714421 182.046089023588 327.447001594064 167.624298934394 C334.717201663152 160.717618480592 348.83316717912 158.211812988628 354.446070556851 169.437667803261 C357.869542005206 176.2845626408 344.46884133934 199.651461689523 349.092157935731 203.429049640225" opacity="1" stroke="#000000" stroke-opacity="1" stroke-width="2" stroke-linecap="round" stroke-linejoin="miter" stroke-dasharray="none" fill-opacity="0" /><path d="M340.745047975625 226.256494948907 C343.807566168751 216.254457466298 353.377090281482 211.868538520362 360.289153363114 205.301924803444 C377.279418111164 189.161346305835 400.895990879954 197.60584353091 404.280005743946 221.293827430898 C406.239426451903 235.009724327422 401.228214359145 250.748758788846 394.201265814747 261.608787147695 C390.82131195122 266.832242984111 379.083155920948 271.687527076894 367.139652638931 274.008669986921" opacity="1" stroke="#000000" stroke-opacity="1" stroke-width="2" stroke-linecap="round" stroke-linejoin="round" stroke-dasharray="none" fill-opacity="0" /><path d="M350.416356619454 248.822969893001 C353.065474577417 245.643951448762 355.110632857253 242.253088152043 358.274296394416 239.353005171465 C376.938558397854 222.244130374433 379.083155920948 241.451307289296 364.318867300506 256.277909438713 C363.420112630287 257.513606999306 361.011771149405 265.344753783056 360.289153363114 265.344753783056" opacity="1" stroke="#000000" stroke-opacity="1" stroke-width="1" stroke-linecap="round" stroke-linejoin="round" stroke-dasharray="none" fill-opacity="0" /><path d="M359.886177163455 230.286160827123 C375.015037895164 222.721838594422 384.46741295789 230.189465762876 384.46741295789 247.81545730509" opacity="1" stroke="#000000" stroke-opacity="1" stroke-width="1" stroke-linecap="round" stroke-linejoin="round" stroke-dasharray="none" fill-opacity="0" /><path d="M265.931786159955 305.783935884486 C268.131659298251 301.534214090191 267.465491500391 297.145082455819 274.06023640114 292.122512835174 C278.407989399378 288.811256303549 282.413067825315 288.703109515482 287.22983269075 294.189679618408" opacity="1" stroke="#000000" stroke-opacity="1" stroke-width="2" stroke-linecap="round" stroke-linejoin="round" stroke-dasharray="none" fill="#000000" fill-opacity="1" /><path d="M265.931786159955 305.783935884486 C276.737651826255 315.992666275799 297.80503929038 304.541728444149 286.876936706715 293.660335642356" opacity="1" stroke="#000000" stroke-opacity="1" stroke-width="2" stroke-linecap="round" stroke-linejoin="round" stroke-dasharray="none" fill="#000000" fill-opacity="1" /><path d="M391.848119541645 199.491602713652 C405.569831491065 198.278175125292 410.967477368733 197.899789761158 417.010294114864 194.27401320696 C440.476941474897 180.194019985025 480.138772962042 162.014175909579 505.067405035938 155.782017891103 C585.697324469532 135.624538032705 649.651343844069 184.341587556737 686.83400824857 250.444102053624 C701.740715434313 276.944893468641 711.681573584522 322.08122672289 711.681573584522 352.317446510488" opacity="1" stroke="#000000" stroke-opacity="1" stroke-width="2" stroke-linecap="round" stroke-linejoin="round" stroke-dasharray="none" fill-opacity="0" /><path d="M420.094151767507 414.351107142247 C440.033355852687 412.783551072888 452.839486691788 377.835401103062 464.188574774372 380.458652809013 C490.697733947865 386.586034720159 515.329464863892 381.453746905569 550.605054616089 391.532486834769 C569.283464912695 396.86917549094 568.875185595258 400.015948817648 586.408607192213 401.101482555112 C589.618815776324 401.300233820123 550.909235063947 389.760911685412 555.38674041889 369.164387052676" opacity="1" stroke="#000000" stroke-opacity="1" stroke-width="2" stroke-linecap="round" stroke-linejoin="round" stroke-dasharray="none" fill-opacity="0" /><path d="M314.079413583287 414.863005194734 C326.311259294033 408.747057135166 331.848512580189 408.05130162783 338.768196204151 397.671776191884 C341.552115686933 393.495896967714 348.503288798757 393.821758140987 353.88630609795 392.632406227285 C367.991651062287 389.515897753626 385.345573915582 391.706122905288 398.171078793853 404.531627783559" opacity="1" stroke="#000000" stroke-opacity="1" stroke-width="2" stroke-linecap="round" stroke-linejoin="round" stroke-dasharray="none" fill-opacity="0" /><path d="M629.444281469925 400.695275557754 C633.268224115056 395.341755854576 646.419796719304 393.560678844052 648.440348700484 392.642364088774 C667.387967611878 384.029775086009 680.355823417445 387.467928612958 696.19242762014 371.631276351086" opacity="1" stroke="#000000" stroke-opacity="1" stroke-width="2" stroke-linecap="round" stroke-linejoin="miter" stroke-dasharray="none" fill-opacity="0" /><path d="M468.239965232767 335.867943622729 C479.867407741072 349.663205795409 481.000149038543 369.532629166297 461.266151167247 380.691735105425" opacity="1" stroke="#000000" stroke-opacity="1" stroke-width="2" stroke-linecap="round" stroke-linejoin="miter" stroke-dasharray="none" fill-opacity="0" /><path d="M586.458635592864 400.982810981036 C588.832935865043 403.114651007086 594.215107733352 404.204566017708 596.34749341955 406.336855585554" opacity="1" stroke="#000000" stroke-opacity="1" stroke-width="2" stroke-linecap="round" stroke-linejoin="round" stroke-dasharray="none" fill-opacity="0" /><path d="M314.079413583287 414.863005194734 C308.368104052764 416.825040562013 301.159910662153 418.025165731706 298.170261028632 418.161058896865 C292.074488403865 418.438139470717 290.092029217766 423.60895903948 286.166487353892 425.179195905956 C284.756286921389 425.743410644653 282.327354782051 427.550188254456 280.487577395387 427.287400674287 C277.769278252048 426.899082523631 282.426990771973 422.500954086696 283.04526007007 421.612051547772 C286.683976557687 416.381482953152 292.026294753772 413.178627157092 298.027155838324 411.178404207811" opacity="1" stroke="#000000" stroke-opacity="1" stroke-width="2" stroke-linecap="round" stroke-linejoin="round" stroke-dasharray="none" fill-opacity="0" /><path d="M295.364677429141 402.1029092116 C291.102141747348 404.03498385201 284.344792232596 404.105439001381 280.013206589285 404.222511156699 C274.762645377009 404.364381847387 259.25302380024 409.948473748463 256.559403044323 413.764564643825 C252.099247087583 420.083000770395 266.63812134689 415.132905533107 268.598431149625 413.942768072365 C271.433345886105 412.221480586747 272.158057813804 411.885286213591 275.740514372743 409.868851555525" opacity="1" stroke="#000000" stroke-opacity="1" stroke-width="2" stroke-linecap="round" stroke-linejoin="round" stroke-dasharray="none" fill-opacity="0" /><path d="M288.488044035319 415.220024332383 C282.420510157301 418.030882543666 271.222918223066 424.846808068849 274.630880985663 422.53426190852" opacity="1" stroke="#000000" stroke-opacity="1" stroke-width="2" stroke-linecap="round" stroke-linejoin="round" stroke-dasharray="none" fill-opacity="0" /><path d="M267.306777928779 421.265792696019 C263.177646735157 422.868626014882 255.196300605341 426.011580852651 264.496243973222 417.331516765295 C265.780313095528 416.1331131261 267.478460087395 415.286694899702 268.598431149625 413.942768072365" opacity="1" stroke="#000000" stroke-opacity="1" stroke-width="2" stroke-linecap="round" stroke-linejoin="round" stroke-dasharray="none" fill-opacity="0" /><path d="M400.108763570763 429.846785125077 C394.613013644821 433.560129669632 384.783360939924 444.513189409972 384.783360939924 447.205464508935" opacity="1" stroke="#000000" stroke-opacity="1" stroke-width="2" stroke-linecap="round" stroke-linejoin="round" stroke-dasharray="none" fill-opacity="0" /><path d="M384.783360939924 447.205464508935 C391.114839934871 448.78833425767 398.127777610189 445.899070677828 402.604628341187 435.403428209324" opacity="1" stroke="#000000" stroke-opacity="1" stroke-width="2" stroke-linecap="round" stroke-linejoin="round" stroke-dasharray="none" fill-opacity="0" /><path d="M402.539754107056 436.89198630257 C414.358745673145 437.986735908681 416.049459792447 424.267126177878 420.094151767507 414.351107142247" opacity="1" stroke="#000000" stroke-opacity="1" stroke-width="2" stroke-linecap="round" stroke-linejoin="round" stroke-dasharray="none" fill-opacity="0" /><path d="M398.171078793853 404.531627783559 C402.923602754246 408.491896210098 391.88546708521 424.582685400271 387.330322165008 426.860305919548 C382.98043799003 429.035272036625 360.923678219213 419.661497285008 350.981162027396 436.944500092373" opacity="1" stroke="#000000" stroke-opacity="1" stroke-width="2" stroke-linecap="round" stroke-linejoin="round" stroke-dasharray="none" fill-opacity="0" /><path d="M350.981162027396 436.944500092373 C347.078592137412 444.884211247853 360.737316986021 435.369941242876 363.998804978095 432.923921367176" opacity="1" stroke="#000000" stroke-opacity="1" stroke-width="2" stroke-linecap="round" stroke-linejoin="round" stroke-dasharray="none" fill-opacity="0" /><path d="M391.774368996846 436.784905329751 C389.300339921509 442.744248411651 386.142996166124 440.363781253463 383.931505074484 438.889517937937" opacity="1" stroke="#000000" stroke-opacity="1" stroke-width="2" stroke-linecap="round" stroke-linejoin="round" stroke-dasharray="none" fill-opacity="0" /><path d="M383.931505074484 438.889517937937 C381.177137231035 436.400638567744 379.510293636925 445.826210876472 369.552011848695 445.960782251989" opacity="1" stroke="#000000" stroke-opacity="1" stroke-width="2" stroke-linecap="round" stroke-linejoin="round" stroke-dasharray="none" fill-opacity="0" /><path d="M379.375722261408 431.965359198253 C373.589153114191 435.464214961686 360.939443815625 446.768210505086 369.552011848695 445.960782251989" opacity="1" stroke="#000000" stroke-opacity="1" stroke-width="2" stroke-linecap="round" stroke-linejoin="round" stroke-dasharray="none" fill-opacity="0" /><path d="M379.375722261408 431.965359198253 C367.134264015104 441.283886322311 368.433894559274 439.887622251255 365.649441958712 440.981641357874 C354.581581688663 445.329651224943 357.709730803227 436.675357341339 367.533441215945 430.888788194122" opacity="1" stroke="#000000" stroke-opacity="1" stroke-width="2" stroke-linecap="round" stroke-linejoin="round" stroke-dasharray="none" fill-opacity="0" /><path d="M629.494892452061 400.755714360224 C629.874079359071 403.41011882766 630.701946743124 409.213745049555 628.158895388939 410.909080579563 C611.905041410996 421.745079349876 590.518371204577 428.875331095366 573.117296611011 441.636196025334 C568.601752452706 444.947665561548 558.415183911479 454.231758553054 552.543499325403 457.133358260446" opacity="1" stroke="#000000" stroke-opacity="1" stroke-width="2" stroke-linecap="round" stroke-linejoin="round" stroke-dasharray="none" fill-opacity="0" /><path d="M516.445381765841 446.817564463744 C501.575292430279 450.584771440006 524.719590706716 433.578209925858 530.099383046109 430.681394969324 C544.657372843099 422.842366480536 563.907476214912 422.553434708046 579.529928724624 415.718650783124 C583.471742427176 413.994095273466 591.30812345495 411.376225550153 596.34749341955 406.336855585554" opacity="1" stroke="#000000" stroke-opacity="1" stroke-width="2" stroke-linecap="round" stroke-linejoin="round" stroke-dasharray="none" fill-opacity="0" /><path d="M554.027758949758 433.339259697509 C547.364113754355 433.339259697509 528.129966029324 450.498692748811 528.129966029324 457.122977478203" opacity="1" stroke="#000000" stroke-opacity="1" stroke-width="2" stroke-linecap="round" stroke-linejoin="round" stroke-dasharray="none" fill-opacity="0" /><path d="M528.129966029324 457.122977478203 C530.881555368721 459.849137391753 537.992167915508 454.378607907561 541.297341699529 451.899907791462 C548.422643349781 446.555919538979 552.35399043106 446.958326376545 558.819263476842 439.68489420004" opacity="1" stroke="#000000" stroke-opacity="1" stroke-width="2" stroke-linecap="round" stroke-linejoin="round" stroke-dasharray="none" fill-opacity="0" /><path d="M553.011980183393 456.733313670593 C547.952165844872 461.79298383158 556.043056482372 438.874526399953 563.170152320441 435.761634458093" opacity="1" stroke="#000000" stroke-opacity="1" stroke-width="2" stroke-linecap="round" stroke-linejoin="round" stroke-dasharray="none" fill-opacity="0" /><path d="M533.50370291241 433.794091749216 C531.530537279813 435.372547360607 510.884122577665 450.684585645685 510.884122577665 451.976800798502" opacity="1" stroke="#000000" stroke-opacity="1" stroke-width="2" stroke-linecap="round" stroke-linejoin="round" stroke-dasharray="none" fill-opacity="0" /><path d="M510.884122577665 451.976800798502 C508.564011312374 457.742236379437 514.416514124356 455.557301996301 517.381782215757 454.69893491721 C522.588397059184 453.191756936219 534.487658955454 447.936911772338 538.606859080536 442.993929293252" opacity="1" stroke="#000000" stroke-opacity="1" stroke-width="2" stroke-linecap="round" stroke-linejoin="round" stroke-dasharray="none" fill-opacity="0" /><path d="M302.595360839893 358.718736658312 C314.972012766215 374.189586696578 318.610716345753 377.514296333486 318.610716345753 377.514296333486 C318.610716345753 387.593036262685 304.841217960104 392.626333759582 295.364677429141 402.1029092116" opacity="1" stroke="#000000" stroke-opacity="1" stroke-width="2" stroke-linecap="round" stroke-linejoin="round" stroke-dasharray="none" fill-opacity="0" /><path d="M277.787531842785 353.515901895435 C291.307445654705 364.316709184129 328.876277561686 387.841099645398 328.876277561686 405.592429521387" opacity="1" stroke="#000000" stroke-opacity="1" stroke-width="1" stroke-linecap="round" stroke-linejoin="round" stroke-dasharray="none" fill-opacity="0" /><path d="M264.362783638521 353.901476986418 C267.932739458563 353.901476986418 275.316202993195 362.743019908699 278.106038221587 365.067930658208 C286.445783261383 372.017672134657 313.752611179275 397.976356032429 313.752611179275 410.162817678157" opacity="1" stroke="#000000" stroke-opacity="1" stroke-width="1" stroke-linecap="round" stroke-linejoin="round" stroke-dasharray="none" fill-opacity="0" /><path d="M278.659220218204 413.561099064287 C272.863851622725 418.127147048603 263.596951715362 421.582199398587 266.595830781704 425.705658114807 C267.335629723794 426.849082055442 271.706973895978 425.083309114911 274.630880985663 422.53426190852" opacity="1" stroke="#000000" stroke-opacity="1" stroke-width="2" stroke-linecap="round" stroke-linejoin="round" stroke-dasharray="none" fill-opacity="0" /><path d="M256.846941100676 354.330933792641 C265.503876709071 360.823536376884 283.259762391848 379.025842667854 287.554532505768 393.627961691939" opacity="1" stroke="#000000" stroke-opacity="1" stroke-width="1" stroke-linecap="round" stroke-linejoin="round" stroke-dasharray="none" fill-opacity="0" /><path d="M253.196390040709 356.048761017511 C258.866219513664 364.553505226946 274.026013721545 385.038516220614 278.106038221587 392.983776482613" opacity="1" stroke="#000000" stroke-opacity="1" stroke-width="1" stroke-linecap="round" stroke-linejoin="round" stroke-dasharray="none" fill-opacity="0" /><path d="M249.116370159723 364.208824809063 C253.363371651405 362.793193689555 263.718574399609 385.268548433936 263.718574399609 388.903744586837" opacity="1" stroke="#000000" stroke-opacity="1" stroke-width="1" stroke-linecap="round" stroke-linejoin="miter" stroke-dasharray="none" fill-opacity="0" /><path d="M240.312097129254 364.208824809063 C245.930719549053 369.827519317628 247.072557536847 383.11338269781 243.747907771323 389.762850435982" opacity="1" stroke="#000000" stroke-opacity="1" stroke-width="1" stroke-linecap="round" stroke-linejoin="miter" stroke-dasharray="none" fill-opacity="0" /><path d="M232.022946388115 358.36655900881 C232.977017171131 365.999125272944 231.979092389047 373.007883418821 227.825505922777 379.65350642283" opacity="1" stroke="#000000" stroke-opacity="1" stroke-width="1" stroke-linecap="round" stroke-linejoin="miter" stroke-dasharray="none" fill-opacity="0" /><path d="M237.119862411329 358.666256036963 C237.119862411329 366.33131030479 238.618948291806 374.209747318766 238.618948291806 382.052236068299" opacity="1" stroke="#000000" stroke-opacity="1" stroke-width="1" stroke-linecap="round" stroke-linejoin="miter" stroke-dasharray="none" fill-opacity="0" /><path d="M226.326408027505 358.36655900881 C226.326408027505 364.147309062425 221.654118863218 366.578334474882 217.331868715049 369.459770494758" opacity="1" stroke="#000000" stroke-opacity="1" stroke-width="1" stroke-linecap="round" stroke-linejoin="miter" stroke-dasharray="none" fill-opacity="0" /><path d="M209.35182972778 327.083776153475 C209.007178212472 325.746104223544 201.687729501687 326.944892336153 199.857275595374 327.990852265713" opacity="1" stroke="#000000" stroke-opacity="1" stroke-width="1" stroke-linecap="round" stroke-linejoin="miter" stroke-dasharray="none" fill-opacity="0" /><path d="M212.287517416751 321.545539911696 C207.219905476749 319.856355956355 203.239512269815 317.685426810153 197.785576635009 319.243697567179" opacity="1" stroke="#000000" stroke-opacity="1" stroke-width="1" stroke-linecap="round" stroke-linejoin="miter" stroke-dasharray="none" fill-opacity="0" /><path d="M214.819599263773 318.553183311166 C209.635852322402 305.593737861581 189.407462349729 298.261637572436 176.377946619996 301.51908859364" opacity="1" stroke="#000000" stroke-opacity="1" stroke-width="1" stroke-linecap="round" stroke-linejoin="miter" stroke-dasharray="none" fill-opacity="0" /><path d="M217.812063997451 313.719199045655 C213.885641246356 301.939894747984 207.823168296808 297.781622511952 197.55538519168 291.621012722846" opacity="1" stroke="#000000" stroke-opacity="1" stroke-width="1" stroke-linecap="round" stroke-linejoin="miter" stroke-dasharray="none" fill-opacity="0" /><path d="M224.48755578 302.670009765898 C224.48755578 285.09919015895 212.617215386183 269.917872835482 197.095002305025 262.156700213534" opacity="1" stroke="#000000" stroke-opacity="1" stroke-width="1" stroke-linecap="round" stroke-linejoin="miter" stroke-dasharray="none" fill-opacity="0" /><path d="M229.870162108973 297.396871685533 C229.091348602183 274.738400531416 231.452952533379 259.201829771111 220.344145844473 239.598106974478" opacity="1" stroke="#000000" stroke-opacity="1" stroke-width="1" stroke-linecap="round" stroke-linejoin="miter" stroke-dasharray="none" fill-opacity="0" /><path d="M260.216829197734 261.876244222033 C265.340223196386 245.825230664637 267.286151290385 224.816065294034 262.008448657863 208.982873292907" opacity="1" stroke="#000000" stroke-opacity="1" stroke-width="1" stroke-linecap="round" stroke-linejoin="miter" stroke-dasharray="none" fill-opacity="0" /><path d="M248.334106004838 274.024998531186 C252.328080859156 259.655700639274 256.273486985191 237.319909745076 245.89519180241 224.866046838174" opacity="1" stroke="#000000" stroke-opacity="1" stroke-width="1" stroke-linecap="round" stroke-linejoin="miter" stroke-dasharray="none" fill-opacity="0" /><path d="M234.973024215424 290.690252917051 C243.727686872576 275.865676588559 240.466367087622 228.416851076157 231.623430449205 214.047157134894" opacity="1" stroke="#000000" stroke-opacity="1" stroke-width="1" stroke-linecap="round" stroke-linejoin="miter" stroke-dasharray="none" fill-opacity="0" /><path d="M287.701689705927 343.681596866027 C294.662305142097 344.675939300295 299.1028283541 346.084171245666 302.285835710032 347.824874638816 C312.880601441087 353.618889025303 329.061381440308 362.049622102063 333.608620625886 374.175721421407" opacity="1" stroke="#000000" stroke-opacity="1" stroke-width="1" stroke-linecap="round" stroke-linejoin="round" stroke-dasharray="none" fill-opacity="0" /><path d="M282.564091589332 347.493266317095 C284.147100807757 349.709563326444 302.120111171061 360.751654518283 306.594797495738 368.043754901831" opacity="1" stroke="#000000" stroke-opacity="1" stroke-width="1" stroke-linecap="round" stroke-linejoin="round" stroke-dasharray="none" fill-opacity="0" /></g></g></svg>